<svg width="377" height="300" viewBox="0 0 377 300" fill="none" xmlns="http://www.w3.org/2000/svg">
<g clip-path="url(#clip0_218_44)">
<path fill-rule="evenodd" clip-rule="evenodd" d="M78.6849 0.0361328C57.202 0.0361328 41.3056 18.8394 42.0175 39.231C42.7006 58.8218 41.813 84.1948 35.4257 104.886C29.0155 125.636 18.1821 138.785 0.483398 140.473V159.528C18.1821 161.219 29.0155 174.361 35.4249 195.114C41.813 215.806 42.6999 241.179 42.0167 260.77C41.3049 281.158 57.2012 299.964 78.6878 299.964H298.817C320.3 299.964 336.193 281.161 335.481 260.77C334.798 241.179 335.686 215.806 342.073 195.114C348.483 174.361 359.29 161.214 376.989 159.528V140.473C359.291 138.782 348.484 125.639 342.073 104.886C335.685 84.1977 334.798 58.8218 335.481 39.231C336.193 18.8423 320.3 0.0361328 298.817 0.0361328H78.6819H78.6849ZM255.742 184.662C255.742 212.74 234.798 229.769 200.041 229.769H140.875C139.183 229.769 137.56 229.096 136.363 227.9C135.166 226.703 134.494 225.08 134.494 223.387V76.6139C134.494 74.9215 135.166 73.2983 136.363 72.1015C137.56 70.9048 139.183 70.2325 140.875 70.2325H199.704C228.686 70.2325 247.706 85.931 247.706 110.033C247.706 126.95 234.911 142.095 218.61 144.748V145.631C240.8 148.065 255.742 163.434 255.742 184.662ZM193.59 90.4616H159.854V138.113H188.268C210.233 138.113 222.345 129.268 222.345 113.459C222.343 98.6425 211.93 90.4616 193.59 90.4616ZM159.854 157.02V209.533H194.831C217.701 209.533 229.815 200.356 229.815 183.111C229.815 165.865 217.361 157.017 193.36 157.017H159.854V157.02Z" fill="#7952B3"/>
</g>
<defs>
<clipPath id="clip0_218_44">
<rect width="376.506" height="300" fill="white" transform="translate(0.483398)"/>
</clipPath>
</defs>
</svg>
