<svg width="712" height="300" viewBox="0 0 712 300" fill="none" xmlns="http://www.w3.org/2000/svg">
<g clip-path="url(#clip0_218_45)">
<path d="M425.819 103.342C410.276 103.342 398.702 110.973 398.702 129.34C398.702 143.177 406.33 152.786 424.98 152.786C440.789 152.786 451.528 143.469 451.528 128.765C451.528 112.103 441.92 103.342 425.819 103.342ZM394.745 233.029C391.065 237.541 387.4 242.34 387.4 247.996C387.4 259.29 401.801 262.689 421.584 262.689C437.968 262.689 460.289 261.54 460.289 246.305C460.289 237.249 449.551 236.691 435.983 235.842L394.745 233.029ZM478.367 104.194C483.443 110.693 488.82 119.737 488.82 132.73C488.82 164.088 464.241 182.449 428.651 182.449C419.601 182.449 411.409 181.322 406.33 179.911L397.002 194.879L424.686 196.573C473.566 199.688 502.371 201.105 502.371 238.663C502.371 271.159 473.846 289.512 424.686 289.512C373.554 289.512 354.06 276.516 354.06 254.2C354.06 241.487 359.711 234.72 369.599 225.381C360.274 221.44 357.17 214.381 357.17 206.747C357.17 200.527 360.274 194.881 365.367 189.508C370.449 184.149 376.097 178.775 382.879 172.56C369.038 165.779 358.58 151.089 358.58 130.178C358.58 97.6964 380.055 75.3863 423.27 75.3863C435.422 75.3863 442.769 76.5027 449.267 78.2105H504.362V102.214L478.367 104.194ZM554.064 52.8569C537.958 52.8569 528.636 43.5263 528.636 27.4172C528.636 11.3303 537.955 2.56348 554.064 2.56348C570.448 2.56348 579.773 11.3303 579.773 27.4172C579.773 43.5263 570.451 52.8569 554.064 52.8569ZM517.614 222.632V200.324L532.026 198.353C535.983 197.783 536.544 196.939 536.544 192.693V109.635C536.544 106.535 535.7 104.547 532.865 103.709L517.614 98.3351L520.719 75.4585H579.204V192.693C579.204 197.22 579.476 197.783 583.728 198.355L598.134 200.327V222.632H517.614ZM709.854 211.679C697.702 217.608 679.905 222.976 663.796 222.976C630.178 222.976 617.47 209.43 617.47 177.489V103.481C617.47 101.787 617.47 100.657 615.202 100.657H595.43V75.5058C620.297 72.6733 630.178 60.2436 633.285 29.45H660.127V69.577C660.127 71.5486 660.127 72.4011 662.39 72.4011H702.22V100.651H660.127V168.167C660.127 184.834 664.087 191.327 679.335 191.327C687.255 191.327 695.439 189.355 702.217 186.812L709.854 211.679Z" fill="#2F2707"/>
<path d="M291.261 137.543L162.089 8.37854C160.32 6.60897 158.219 5.20524 155.908 4.24752C153.596 3.28981 151.118 2.79688 148.616 2.79688C146.114 2.79688 143.636 3.28981 141.325 4.24752C139.013 5.20524 136.913 6.60897 135.144 8.37854L108.321 35.2039L142.347 69.2272C146.347 67.867 150.647 67.6541 154.762 68.6126C158.876 69.5711 162.64 71.6628 165.626 74.6506C168.629 77.6572 170.726 81.4478 171.676 85.5893C172.627 89.7308 172.393 94.0563 171.003 98.0714L203.79 130.864C211.724 128.132 220.88 129.901 227.214 136.246C229.32 138.351 230.99 140.85 232.13 143.6C233.27 146.351 233.857 149.299 233.857 152.276C233.857 155.253 233.27 158.202 232.13 160.952C230.99 163.703 229.32 166.202 227.214 168.306C223.509 172.015 218.633 174.325 213.416 174.843C208.2 175.361 202.965 174.055 198.602 171.148C194.24 168.241 191.02 163.912 189.491 158.897C187.961 153.883 188.217 148.494 190.214 143.647L159.634 113.067L159.631 193.543C161.848 194.639 163.873 196.087 165.626 197.831C167.732 199.936 169.403 202.435 170.542 205.186C171.682 207.937 172.269 210.886 172.269 213.863C172.269 216.841 171.682 219.79 170.542 222.541C169.403 225.291 167.732 227.791 165.626 229.896C156.768 238.755 142.411 238.755 133.567 229.896C130.924 227.256 128.975 224.003 127.893 220.428C126.811 216.853 126.628 213.066 127.363 209.403C128.097 205.741 129.725 202.316 132.102 199.434C134.479 196.553 137.531 194.303 140.987 192.885V111.659C138.206 110.524 135.683 108.841 133.567 106.711C126.857 100.01 125.244 90.1654 128.682 81.9262L95.1418 48.3806L6.57359 136.943C4.80376 138.713 3.39986 140.814 2.44203 143.126C1.4842 145.439 0.991211 147.917 0.991211 150.42C0.991211 152.923 1.4842 155.401 2.44203 157.713C3.39986 160.026 4.80376 162.127 6.57359 163.896L135.746 293.064C139.32 296.636 144.166 298.643 149.219 298.643C154.272 298.643 159.118 296.636 162.691 293.064L291.261 164.499C294.835 160.924 296.842 156.076 296.842 151.021C296.842 145.966 294.835 141.118 291.261 137.543Z" fill="#DE4C36"/>
</g>
<defs>
<clipPath id="clip0_218_45">
<rect width="710.9" height="300" fill="white" transform="translate(0.989258)"/>
</clipPath>
</defs>
</svg>
