<svg width="310" height="300" viewBox="0 0 310 300" fill="none" xmlns="http://www.w3.org/2000/svg">
<g clip-path="url(#clip0_218_46)">
<path d="M154.487 0C69.6686 0 0.889648 68.7669 0.889648 153.598C0.889648 221.462 44.9 279.037 105.93 299.347C113.606 300.769 116.424 296.015 116.424 291.958C116.424 288.296 116.281 276.195 116.216 263.361C73.4837 272.652 64.467 245.238 64.467 245.238C57.4801 227.484 47.4129 222.765 47.4129 222.765C33.4776 213.231 48.4633 213.426 48.4633 213.426C63.8876 214.51 72.0093 229.255 72.0093 229.255C85.7084 252.737 107.941 245.948 116.706 242.024C118.084 232.096 122.066 225.321 126.458 221.485C92.3424 217.6 56.4778 204.43 56.4778 145.576C56.4778 128.807 62.4781 115.105 72.3044 104.348C70.7095 100.479 65.4524 84.8573 73.7921 63.7002C73.7921 63.7002 86.6902 59.5719 116.043 79.4449C128.294 76.0406 141.434 74.3348 154.487 74.277C167.541 74.3348 180.691 76.0406 192.966 79.4449C222.283 59.5719 235.163 63.7002 235.163 63.7002C243.524 84.8573 238.264 100.479 236.669 104.348C246.517 115.105 252.477 128.806 252.477 145.576C252.477 204.57 216.545 217.561 182.342 221.362C187.851 226.129 192.76 235.477 192.76 249.806C192.76 270.358 192.582 286.899 192.582 291.958C192.582 296.045 195.346 300.835 203.133 299.327C264.129 278.994 308.084 221.44 308.084 153.598C308.084 68.7669 239.315 0 154.487 0Z" fill="#161614"/>
<path d="M58.4176 218.804C58.0803 219.566 56.8781 219.795 55.7855 219.272C54.6712 218.771 54.0448 217.73 54.4062 216.964C54.7374 216.179 55.9397 215.96 57.0516 216.487C58.1683 216.987 58.8043 218.038 58.4176 218.804ZM65.9731 225.545C65.2407 226.224 63.8084 225.909 62.8363 224.835C61.8316 223.765 61.6437 222.333 62.3869 221.643C63.1422 220.965 64.5312 221.282 65.5383 222.354C66.5429 223.437 66.7381 224.86 65.9719 225.546M71.1567 234.17C70.2147 234.824 68.6751 234.211 67.7247 232.845C66.7839 231.48 66.7839 229.842 67.7452 229.185C68.6992 228.529 70.2147 229.119 71.1784 230.474C72.118 231.863 72.118 233.502 71.1555 234.171M79.9217 244.16C79.0796 245.088 77.2871 244.84 75.9741 243.572C74.6321 242.334 74.2575 240.577 75.1019 239.648C75.9536 238.718 77.7569 238.979 79.0796 240.236C80.4132 241.472 80.8191 243.242 79.9217 244.16ZM91.2501 247.533C90.8803 248.736 89.1528 249.282 87.4133 248.772C85.6762 248.245 84.5391 246.836 84.8896 245.62C85.251 244.41 86.9857 243.84 88.7385 244.387C90.4731 244.911 91.6115 246.309 91.2501 247.533ZM104.145 248.963C104.188 250.231 102.712 251.281 100.886 251.304C99.049 251.344 97.5637 250.318 97.5444 249.073C97.5444 247.794 98.9863 246.753 100.822 246.723C102.648 246.686 104.145 247.704 104.145 248.963ZM116.81 248.478C117.029 249.714 115.76 250.983 113.947 251.321C112.164 251.646 110.514 250.883 110.286 249.658C110.064 248.391 111.358 247.123 113.137 246.794C114.954 246.478 116.579 247.221 116.81 248.478Z" fill="#161614"/>
</g>
<defs>
<clipPath id="clip0_218_46">
<rect width="308.388" height="300" fill="white" transform="translate(0.889648)"/>
</clipPath>
</defs>
</svg>
