<svg width="612" height="154" viewBox="0 0 612 154" fill="none" xmlns="http://www.w3.org/2000/svg">
<path d="M11.264 32.704H32.768C37.4613 32.704 41.728 33.1307 45.568 33.984C49.4933 34.752 52.8213 36.1173 55.552 38.08C58.2827 39.9573 60.3733 42.4747 61.824 45.632C63.2747 48.7893 64 52.7573 64 57.536C63.9147 62.8267 63.0187 67.136 61.312 70.464C59.6053 73.7067 57.5147 76.352 55.04 78.4C52.5653 80.3627 49.7067 81.8133 46.464 82.752V83.008C46.8053 83.3493 47.3173 83.9893 48 84.928C48.768 85.7813 49.408 86.5493 49.92 87.232L74.624 120H61.952L36.608 85.312H22.016V120H11.264V32.704ZM53.12 59.328C53.12 55.744 52.6507 52.8427 51.712 50.624C50.8587 48.32 49.536 46.5707 47.744 45.376C46.0373 44.1813 43.904 43.3707 41.344 42.944C38.784 42.5173 35.8827 42.304 32.64 42.304H22.016V75.712H34.688C38.016 75.712 40.832 75.2853 43.136 74.432C45.44 73.5787 47.3173 72.4267 48.768 70.976C50.2187 69.44 51.2853 67.6907 51.968 65.728C52.6507 63.7653 53.0347 61.632 53.12 59.328ZM94.876 32.704V87.232C94.876 92.096 95.5587 96.1067 96.924 99.264C98.3747 102.336 100.252 104.768 102.556 106.56C104.86 108.352 107.463 109.589 110.364 110.272C113.351 110.955 116.38 111.296 119.452 111.296C122.524 111.296 125.511 110.955 128.412 110.272C131.313 109.589 133.916 108.352 136.22 106.56C138.524 104.768 140.359 102.336 141.724 99.264C143.089 96.1067 143.772 92.096 143.772 87.232V32.704H154.524V89.92C154.524 94.3573 153.671 98.496 151.964 102.336C150.343 106.176 147.996 109.547 144.924 112.448C141.852 115.264 138.14 117.483 133.788 119.104C129.436 120.725 124.615 121.536 119.324 121.536C107.975 121.536 99.2707 118.805 93.212 113.344C87.1533 107.797 84.124 99.9893 84.124 89.92V32.704H94.876ZM176.389 32.704H186.629L232.453 101.952H232.709C232.538 99.4773 232.41 96.832 232.325 94.016C232.154 91.6267 232.026 88.896 231.941 85.824C231.941 82.6667 231.941 79.4667 231.941 76.224V32.704H242.181V120H231.941L186.117 50.496H185.861C185.946 53.056 186.074 55.744 186.245 58.56C186.33 61.0347 186.416 63.808 186.501 66.88C186.586 69.952 186.629 73.1093 186.629 76.352V120H176.389V32.704ZM275.516 110.144H292.796C297.489 110.144 301.884 109.547 305.98 108.352C310.161 107.157 313.788 105.237 316.86 102.592C320.017 99.8613 322.492 96.32 324.284 91.968C326.076 87.616 326.972 82.3253 326.972 76.096C326.972 70.2933 326.161 65.3013 324.54 61.12C322.919 56.8533 320.615 53.3547 317.628 50.624C314.727 47.8933 311.143 45.888 306.876 44.608C302.695 43.2427 298.001 42.56 292.796 42.56H275.516V110.144ZM264.764 32.704H292.796C299.708 32.704 305.937 33.5573 311.484 35.264C317.116 36.9707 321.937 39.616 325.948 43.2C329.959 46.784 333.031 51.3067 335.164 56.768C337.383 62.2293 338.492 68.672 338.492 76.096C338.492 83.6053 337.297 90.1333 334.908 95.68C332.519 101.141 329.276 105.707 325.18 109.376C321.084 112.96 316.263 115.648 310.716 117.44C305.169 119.147 299.196 120 292.796 120H264.764V32.704ZM348.584 32.704H359.464L376.36 109.76H376.488L398.888 32.704H412.456L434.6 109.76H434.728L451.496 32.704H462.376L442.28 120H428.712L405.672 43.072H405.544L382.376 120H368.808L348.584 32.704ZM477.389 32.704H530.893V42.56H488.141V70.464H527.821V80.064H488.141V110.144H532.173V120H477.389V32.704ZM549.639 32.704H572.935C582.151 32.704 588.807 34.4107 592.903 37.824C597.084 41.2373 599.175 46.4427 599.175 53.44C599.175 56.6827 598.706 59.4987 597.767 61.888C596.914 64.2773 595.932 66.2827 594.823 67.904C593.543 69.7813 592.135 71.4027 590.599 72.768C592.647 73.536 594.567 74.5173 596.359 75.712C598.151 76.9067 599.73 78.3573 601.095 80.064C602.46 81.7707 603.527 83.8187 604.295 86.208C605.148 88.512 605.575 91.2427 605.575 94.4C605.575 97.8987 605.106 101.227 604.167 104.384C603.228 107.456 601.65 110.144 599.431 112.448C597.212 114.752 594.268 116.587 590.599 117.952C586.93 119.317 582.364 120 576.903 120H549.639V32.704ZM560.391 70.592H581.767C582.962 69.6533 584.028 68.416 584.967 66.88C585.82 65.6 586.588 64.0213 587.271 62.144C587.954 60.1813 588.295 57.8347 588.295 55.104C588.295 50.0693 586.972 46.6987 584.327 44.992C581.767 43.2 578.14 42.304 573.447 42.304H560.391V70.592ZM560.391 110.4H577.799C583.431 110.4 587.655 108.949 590.471 106.048C593.287 103.147 594.695 99.264 594.695 94.4C594.695 92.2667 594.396 90.304 593.799 88.512C593.287 86.72 592.348 85.184 590.983 83.904C589.618 82.5387 587.783 81.472 585.479 80.704C583.175 79.936 580.316 79.552 576.903 79.552H560.391V110.4Z" fill="white"/>
</svg>
