<svg width="502" height="300" viewBox="0 0 502 300" fill="none" xmlns="http://www.w3.org/2000/svg">
<g clip-path="url(#clip0_218_43)">
<path d="M251.001 0C184.315 0 142.638 33.334 125.964 99.9958C150.974 66.6618 180.149 54.1662 213.49 62.4966C232.514 67.2497 246.111 81.0523 261.164 96.3247C285.68 121.203 314.055 149.997 376.038 149.997C442.719 149.997 484.402 116.663 501.069 49.9948C476.065 83.3288 446.89 95.8306 413.544 87.5002C394.525 82.7472 380.929 68.9445 365.876 53.6722C341.36 28.7936 312.979 0 251.001 0ZM125.964 149.997C59.2838 149.997 17.6006 183.331 0.933594 249.999C25.9372 216.665 55.1123 204.163 88.4589 212.5C107.477 217.259 121.074 231.055 136.127 246.322C160.643 271.2 189.024 300 251.001 300C317.688 300 359.365 266.666 376.038 199.998C351.028 233.332 321.853 245.834 288.513 237.497C269.488 232.75 255.892 218.941 240.839 203.675C216.323 178.797 187.948 149.997 125.964 149.997Z" fill="#06B6D4"/>
</g>
<defs>
<clipPath id="clip0_218_43">
<rect width="500.334" height="300" fill="white" transform="translate(0.833984)"/>
</clipPath>
</defs>
</svg>
