<svg width="2717" height="462" viewBox="0 0 2717 462" fill="none" xmlns="http://www.w3.org/2000/svg">
<path d="M135.605 155.073L14.5009 16.5827C8.84625 10.1163 13.4386 0 22.0287 0H597.016C605.578 0 610.181 10.0576 604.584 16.5367L408.955 243.022C404.961 247.646 397.791 247.639 393.807 243.007L324.09 161.969C322.19 159.761 319.422 158.491 316.509 158.491H143.133C140.248 158.491 137.504 157.245 135.605 155.073Z" fill="#00B4D8"/>
<path d="M309.658 171.527H173.461C164.903 171.527 160.299 181.578 165.889 188.058L393.809 452.295C397.795 456.916 404.954 456.92 408.946 452.304L785.7 16.5403C791.3 10.0622 786.698 0 778.135 0H642.621C639.735 0 636.989 1.24695 635.09 3.42034L408.263 263.026C404.262 267.605 397.135 267.583 393.162 262.98L317.228 174.993C315.329 172.792 312.565 171.527 309.658 171.527Z" fill="#00B4D8"/>
<path d="M866.875 361V99.1818H979.886C999.318 99.1818 1016.32 102.719 1030.89 109.793C1045.47 116.866 1056.8 127.051 1064.9 140.347C1073 153.642 1077.05 169.58 1077.05 188.159C1077.05 206.909 1072.87 222.719 1064.52 235.588C1056.25 248.457 1044.62 258.173 1029.62 264.736C1014.7 271.298 997.273 274.58 977.33 274.58H909.83V219.352H963.011C971.364 219.352 978.48 218.33 984.361 216.284C990.327 214.153 994.886 210.787 998.04 206.185C1001.28 201.582 1002.9 195.574 1002.9 188.159C1002.9 180.659 1001.28 174.565 998.04 169.878C994.886 165.105 990.327 161.611 984.361 159.395C978.48 157.094 971.364 155.943 963.011 155.943H937.955V361H866.875ZM1020.28 240.83L1085.74 361H1008.52L944.602 240.83H1020.28ZM1262.29 99.1818H1333.37V266.909C1333.37 286.852 1328.59 304.111 1319.05 318.685C1309.59 333.173 1296.38 344.381 1279.42 352.307C1262.46 360.148 1242.77 364.068 1220.36 364.068C1197.77 364.068 1178 360.148 1161.04 352.307C1144.08 344.381 1130.87 333.173 1121.41 318.685C1112.03 304.111 1107.34 286.852 1107.34 266.909V99.1818H1178.42V260.773C1178.42 268.869 1180.21 276.114 1183.79 282.506C1187.37 288.812 1192.32 293.756 1198.62 297.335C1205.01 300.915 1212.26 302.705 1220.36 302.705C1228.54 302.705 1235.78 300.915 1242.09 297.335C1248.39 293.756 1253.34 288.812 1256.92 282.506C1260.5 276.114 1262.29 268.869 1262.29 260.773V99.1818ZM1593.68 99.1818V361H1534.36L1439.76 223.443H1438.23V361H1367.15V99.1818H1427.49L1520.56 236.227H1522.6V99.1818H1593.68ZM1728.04 361H1627.3V99.1818H1727.02C1753.95 99.1818 1777.22 104.423 1796.82 114.906C1816.51 125.304 1831.68 140.304 1842.33 159.906C1853.07 179.423 1858.44 202.818 1858.44 230.091C1858.44 257.364 1853.11 280.801 1842.46 300.403C1831.81 319.92 1816.72 334.92 1797.21 345.403C1777.69 355.801 1754.63 361 1728.04 361ZM1698.38 300.659H1725.49C1738.44 300.659 1749.48 298.571 1758.6 294.395C1767.8 290.219 1774.79 283.017 1779.56 272.79C1784.42 262.562 1786.85 248.33 1786.85 230.091C1786.85 211.852 1784.38 197.619 1779.44 187.392C1774.58 177.165 1767.42 169.963 1757.96 165.787C1748.58 161.611 1737.08 159.523 1723.44 159.523H1698.38V300.659ZM1941.28 361L1864.07 99.1818H1943.33L1979.12 260.261H1981.17L2023.61 99.1818H2086L2128.44 260.773H2130.49L2166.28 99.1818H2245.54L2168.33 361H2100.32L2055.83 214.75H2053.78L2009.29 361H1941.28ZM2268.55 361V99.1818H2457.25V156.455H2339.63V201.455H2447.53V258.727H2339.63V303.727H2456.74V361H2268.55ZM2492.5 361V99.1818H2606.02C2625.97 99.1818 2642.71 101.866 2656.26 107.236C2669.9 112.605 2680.17 120.19 2687.07 129.991C2694.06 139.793 2697.56 151.341 2697.56 164.636C2697.56 174.267 2695.43 183.045 2691.16 190.972C2686.99 198.898 2681.11 205.545 2673.52 210.915C2665.94 216.199 2657.07 219.864 2646.93 221.909V224.466C2658.18 224.892 2668.41 227.747 2677.61 233.031C2686.82 238.23 2694.15 245.432 2699.6 254.636C2705.06 263.756 2707.78 274.494 2707.78 286.852C2707.78 301.17 2704.03 313.912 2696.53 325.077C2689.12 336.241 2678.55 345.02 2664.83 351.412C2651.11 357.804 2634.74 361 2615.74 361H2492.5ZM2563.58 304.239H2596.82C2608.75 304.239 2617.7 302.023 2623.66 297.591C2629.63 293.074 2632.61 286.426 2632.61 277.648C2632.61 271.511 2631.21 266.312 2628.39 262.051C2625.58 257.79 2621.58 254.551 2616.38 252.335C2611.26 250.119 2605.09 249.011 2597.84 249.011H2563.58V304.239ZM2563.58 205.034H2592.73C2598.95 205.034 2604.45 204.054 2609.22 202.094C2613.99 200.134 2617.7 197.321 2620.34 193.656C2623.07 189.906 2624.43 185.347 2624.43 179.977C2624.43 171.881 2621.53 165.702 2615.74 161.44C2609.94 157.094 2602.61 154.92 2593.75 154.92H2563.58V205.034Z" fill="#212529"/>
</svg>
